{
	"patcher" : 	{
		"fileversion" : 1,
		"rect" : [ 327.0, 279.0, 391.0, 357.0 ],
		"bglocked" : 0,
		"defrect" : [ 327.0, 279.0, 391.0, 357.0 ],
		"openrect" : [ 0.0, 0.0, 0.0, 0.0 ],
		"openinpresentation" : 0,
		"default_fontsize" : 11.0,
		"default_fontface" : 0,
		"default_fontname" : "Verdana",
		"gridonopen" : 0,
		"gridsize" : [ 5.0, 5.0 ],
		"gridsnaponopen" : 0,
		"toolbarvisible" : 1,
		"boxanimatetime" : 200,
		"imprint" : 0,
		"boxes" : [ 			{
				"box" : 				{
					"maxclass" : "newobj",
					"text" : "/ 100.",
					"patching_rect" : [ 147.0, 161.0, 44.0, 20.0 ],
					"id" : "obj-1",
					"numinlets" : 2,
					"fontname" : "Verdana",
					"numoutlets" : 1,
					"outlettype" : [ "float" ],
					"fontsize" : 11.0
				}

			}
, 			{
				"box" : 				{
					"maxclass" : "newobj",
					"text" : "* 100.",
					"patching_rect" : [ 202.0, 104.0, 46.0, 20.0 ],
					"id" : "obj-2",
					"numinlets" : 2,
					"fontname" : "Verdana",
					"numoutlets" : 1,
					"outlettype" : [ "float" ],
					"fontsize" : 11.0
				}

			}
, 			{
				"box" : 				{
					"maxclass" : "newobj",
					"text" : "loadbang",
					"patching_rect" : [ 264.0, 12.0, 61.0, 20.0 ],
					"id" : "obj-3",
					"numinlets" : 1,
					"fontname" : "Verdana",
					"numoutlets" : 1,
					"outlettype" : [ "bang" ],
					"fontsize" : 11.0
				}

			}
, 			{
				"box" : 				{
					"maxclass" : "message",
					"text" : "#1",
					"patching_rect" : [ 264.0, 36.0, 32.5, 18.0 ],
					"id" : "obj-4",
					"numinlets" : 2,
					"fontname" : "Verdana",
					"numoutlets" : 1,
					"outlettype" : [ "" ],
					"fontsize" : 11.0
				}

			}
, 			{
				"box" : 				{
					"maxclass" : "newobj",
					"text" : "expr ($f1 * $f2 / 100.)",
					"patching_rect" : [ 202.0, 69.0, 139.0, 20.0 ],
					"id" : "obj-5",
					"numinlets" : 2,
					"fontname" : "Verdana",
					"numoutlets" : 1,
					"outlettype" : [ "" ],
					"fontsize" : 11.0
				}

			}
, 			{
				"box" : 				{
					"maxclass" : "outlet",
					"patching_rect" : [ 45.0, 292.0, 25.0, 25.0 ],
					"id" : "obj-6",
					"numinlets" : 1,
					"numoutlets" : 0,
					"comment" : "Value +/- random range"
				}

			}
, 			{
				"box" : 				{
					"maxclass" : "newobj",
					"text" : "+ 0.",
					"patching_rect" : [ 45.0, 266.0, 34.0, 20.0 ],
					"id" : "obj-7",
					"numinlets" : 2,
					"fontname" : "Verdana",
					"numoutlets" : 1,
					"outlettype" : [ "float" ],
					"fontsize" : 11.0
				}

			}
, 			{
				"box" : 				{
					"maxclass" : "newobj",
					"text" : "t b b f",
					"patching_rect" : [ 37.0, 46.0, 46.0, 20.0 ],
					"id" : "obj-8",
					"numinlets" : 1,
					"fontname" : "Verdana",
					"numoutlets" : 3,
					"outlettype" : [ "bang", "bang", "float" ],
					"fontsize" : 11.0
				}

			}
, 			{
				"box" : 				{
					"maxclass" : "newobj",
					"text" : "+ 1",
					"patching_rect" : [ 85.0, 159.0, 32.5, 20.0 ],
					"id" : "obj-9",
					"numinlets" : 2,
					"fontname" : "Verdana",
					"numoutlets" : 1,
					"outlettype" : [ "int" ],
					"fontsize" : 11.0
				}

			}
, 			{
				"box" : 				{
					"maxclass" : "newobj",
					"text" : "random 2",
					"patching_rect" : [ 85.0, 80.0, 64.0, 20.0 ],
					"id" : "obj-10",
					"numinlets" : 2,
					"fontname" : "Verdana",
					"numoutlets" : 1,
					"outlettype" : [ "int" ],
					"fontsize" : 11.0
				}

			}
, 			{
				"box" : 				{
					"maxclass" : "newobj",
					"text" : "random #1",
					"patching_rect" : [ 147.0, 131.0, 74.0, 20.0 ],
					"id" : "obj-11",
					"numinlets" : 2,
					"fontname" : "Verdana",
					"numoutlets" : 1,
					"outlettype" : [ "int" ],
					"fontsize" : 11.0
				}

			}
, 			{
				"box" : 				{
					"maxclass" : "newobj",
					"text" : "gate 2",
					"patching_rect" : [ 85.0, 193.0, 81.0, 20.0 ],
					"id" : "obj-12",
					"numinlets" : 2,
					"fontname" : "Verdana",
					"numoutlets" : 2,
					"outlettype" : [ "", "" ],
					"fontsize" : 11.0
				}

			}
, 			{
				"box" : 				{
					"maxclass" : "newobj",
					"text" : "* -1.",
					"patching_rect" : [ 147.0, 228.0, 37.0, 20.0 ],
					"id" : "obj-13",
					"numinlets" : 2,
					"fontname" : "Verdana",
					"numoutlets" : 1,
					"outlettype" : [ "float" ],
					"fontsize" : 11.0
				}

			}
, 			{
				"box" : 				{
					"maxclass" : "inlet",
					"patching_rect" : [ 322.0, 35.0, 25.0, 25.0 ],
					"id" : "obj-14",
					"numinlets" : 0,
					"numoutlets" : 1,
					"outlettype" : [ "" ],
					"comment" : "+/- range"
				}

			}
, 			{
				"box" : 				{
					"maxclass" : "inlet",
					"patching_rect" : [ 37.0, 13.0, 25.0, 25.0 ],
					"id" : "obj-15",
					"numinlets" : 0,
					"numoutlets" : 1,
					"outlettype" : [ "" ],
					"comment" : "Value"
				}

			}
 ],
		"lines" : [ 			{
				"patchline" : 				{
					"source" : [ "obj-4", 0 ],
					"destination" : [ "obj-5", 1 ],
					"hidden" : 0,
					"midpoints" : [  ]
				}

			}
, 			{
				"patchline" : 				{
					"source" : [ "obj-14", 0 ],
					"destination" : [ "obj-5", 1 ],
					"hidden" : 0,
					"midpoints" : [  ]
				}

			}
, 			{
				"patchline" : 				{
					"source" : [ "obj-3", 0 ],
					"destination" : [ "obj-4", 0 ],
					"hidden" : 0,
					"midpoints" : [  ]
				}

			}
, 			{
				"patchline" : 				{
					"source" : [ "obj-2", 0 ],
					"destination" : [ "obj-11", 1 ],
					"hidden" : 0,
					"midpoints" : [  ]
				}

			}
, 			{
				"patchline" : 				{
					"source" : [ "obj-5", 0 ],
					"destination" : [ "obj-2", 0 ],
					"hidden" : 0,
					"midpoints" : [  ]
				}

			}
, 			{
				"patchline" : 				{
					"source" : [ "obj-8", 2 ],
					"destination" : [ "obj-5", 0 ],
					"hidden" : 0,
					"midpoints" : [ 73.5, 64.0, 211.5, 64.0 ]
				}

			}
, 			{
				"patchline" : 				{
					"source" : [ "obj-12", 1 ],
					"destination" : [ "obj-13", 0 ],
					"hidden" : 0,
					"midpoints" : [  ]
				}

			}
, 			{
				"patchline" : 				{
					"source" : [ "obj-1", 0 ],
					"destination" : [ "obj-12", 1 ],
					"hidden" : 0,
					"midpoints" : [  ]
				}

			}
, 			{
				"patchline" : 				{
					"source" : [ "obj-11", 0 ],
					"destination" : [ "obj-1", 0 ],
					"hidden" : 0,
					"midpoints" : [  ]
				}

			}
, 			{
				"patchline" : 				{
					"source" : [ "obj-8", 0 ],
					"destination" : [ "obj-11", 0 ],
					"hidden" : 0,
					"midpoints" : [ 46.5, 71.0, 156.5, 71.0 ]
				}

			}
, 			{
				"patchline" : 				{
					"source" : [ "obj-9", 0 ],
					"destination" : [ "obj-12", 0 ],
					"hidden" : 0,
					"midpoints" : [  ]
				}

			}
, 			{
				"patchline" : 				{
					"source" : [ "obj-10", 0 ],
					"destination" : [ "obj-9", 0 ],
					"hidden" : 0,
					"midpoints" : [  ]
				}

			}
, 			{
				"patchline" : 				{
					"source" : [ "obj-8", 1 ],
					"destination" : [ "obj-10", 0 ],
					"hidden" : 0,
					"midpoints" : [ 60.0, 71.0, 94.5, 71.0 ]
				}

			}
, 			{
				"patchline" : 				{
					"source" : [ "obj-8", 2 ],
					"destination" : [ "obj-7", 1 ],
					"hidden" : 0,
					"midpoints" : [  ]
				}

			}
, 			{
				"patchline" : 				{
					"source" : [ "obj-7", 0 ],
					"destination" : [ "obj-6", 0 ],
					"hidden" : 0,
					"midpoints" : [  ]
				}

			}
, 			{
				"patchline" : 				{
					"source" : [ "obj-13", 0 ],
					"destination" : [ "obj-7", 0 ],
					"hidden" : 0,
					"midpoints" : [ 156.5, 253.0, 54.5, 253.0 ]
				}

			}
, 			{
				"patchline" : 				{
					"source" : [ "obj-12", 0 ],
					"destination" : [ "obj-7", 0 ],
					"hidden" : 0,
					"midpoints" : [ 94.5, 241.0, 54.5, 241.0 ]
				}

			}
, 			{
				"patchline" : 				{
					"source" : [ "obj-15", 0 ],
					"destination" : [ "obj-8", 0 ],
					"hidden" : 0,
					"midpoints" : [  ]
				}

			}
 ]
	}

}
