{
	"patcher" : 	{
		"fileversion" : 1,
		"rect" : [ 313.0, 225.0, 645.0, 409.0 ],
		"bgcolor" : [ 1.0, 1.0, 1.0, 0.0 ],
		"bglocked" : 0,
		"defrect" : [ 313.0, 225.0, 645.0, 409.0 ],
		"openrect" : [ 0.0, 0.0, 0.0, 0.0 ],
		"openinpresentation" : 1,
		"default_fontsize" : 12.0,
		"default_fontface" : 0,
		"default_fontname" : "Arial",
		"gridonopen" : 0,
		"gridsize" : [ 15.0, 15.0 ],
		"gridsnaponopen" : 0,
		"toolbarvisible" : 1,
		"boxanimatetime" : 200,
		"imprint" : 0,
		"enablehscroll" : 1,
		"enablevscroll" : 1,
		"devicewidth" : 0.0,
		"boxes" : [ 			{
				"box" : 				{
					"maxclass" : "newobj",
					"text" : "+~ 50",
					"outlettype" : [ "signal" ],
					"id" : "obj-52",
					"fontname" : "Arial",
					"patching_rect" : [ 708.0, 752.0, 41.0, 20.0 ],
					"numinlets" : 2,
					"fontsize" : 12.0,
					"numoutlets" : 1
				}

			}
, 			{
				"box" : 				{
					"maxclass" : "number~",
					"outlettype" : [ "signal", "float" ],
					"mode" : 2,
					"id" : "obj-50",
					"fontname" : "Arial",
					"sig" : 0.0,
					"patching_rect" : [ 722.0, 783.0, 56.0, 20.0 ],
					"numinlets" : 2,
					"fontsize" : 12.0,
					"numoutlets" : 2
				}

			}
, 			{
				"box" : 				{
					"maxclass" : "newobj",
					"text" : "*~ 25",
					"outlettype" : [ "signal" ],
					"id" : "obj-48",
					"fontname" : "Arial",
					"patching_rect" : [ 727.0, 730.0, 39.0, 20.0 ],
					"numinlets" : 2,
					"fontsize" : 12.0,
					"numoutlets" : 1
				}

			}
, 			{
				"box" : 				{
					"maxclass" : "newobj",
					"text" : "cycle~ 2",
					"outlettype" : [ "signal" ],
					"id" : "obj-1",
					"fontname" : "Arial",
					"patching_rect" : [ 774.0, 689.0, 55.0, 20.0 ],
					"numinlets" : 2,
					"fontsize" : 12.0,
					"numoutlets" : 1
				}

			}
, 			{
				"box" : 				{
					"maxclass" : "comment",
					"text" : "Test Fire",
					"id" : "obj-53",
					"fontname" : "Arial",
					"presentation_rect" : [ 18.0, 75.0, 150.0, 20.0 ],
					"patching_rect" : [ 29.0, 104.0, 150.0, 20.0 ],
					"numinlets" : 1,
					"fontsize" : 12.0,
					"presentation" : 1,
					"numoutlets" : 0
				}

			}
, 			{
				"box" : 				{
					"maxclass" : "comment",
					"text" : "Trigger Bar",
					"id" : "obj-51",
					"fontname" : "Arial",
					"presentation_rect" : [ 16.0, 52.0, 150.0, 20.0 ],
					"patching_rect" : [ 82.0, 102.0, 150.0, 20.0 ],
					"numinlets" : 1,
					"fontsize" : 12.0,
					"presentation" : 1,
					"numoutlets" : 0
				}

			}
, 			{
				"box" : 				{
					"maxclass" : "comment",
					"text" : "Bar Count",
					"id" : "obj-49",
					"fontname" : "Arial",
					"presentation_rect" : [ 13.0, 27.0, 150.0, 20.0 ],
					"patching_rect" : [ 29.0, 85.0, 150.0, 20.0 ],
					"numinlets" : 1,
					"fontsize" : 12.0,
					"presentation" : 1,
					"numoutlets" : 0
				}

			}
, 			{
				"box" : 				{
					"maxclass" : "comment",
					"text" : "Click In",
					"id" : "obj-46",
					"fontname" : "Arial",
					"presentation_rect" : [ 12.0, 4.0, 150.0, 20.0 ],
					"patching_rect" : [ 766.0, 29.0, 150.0, 20.0 ],
					"numinlets" : 1,
					"fontsize" : 12.0,
					"presentation" : 1,
					"numoutlets" : 0
				}

			}
, 			{
				"box" : 				{
					"maxclass" : "newobj",
					"text" : "random 300",
					"outlettype" : [ "int" ],
					"id" : "obj-38",
					"fontname" : "Arial",
					"patching_rect" : [ 505.0, 541.0, 75.0, 20.0 ],
					"numinlets" : 2,
					"fontsize" : 12.0,
					"numoutlets" : 1
				}

			}
, 			{
				"box" : 				{
					"maxclass" : "message",
					"text" : "13",
					"outlettype" : [ "" ],
					"id" : "obj-47",
					"fontname" : "Arial",
					"presentation_rect" : [ 98.0, 54.0, 50.0, 18.0 ],
					"patching_rect" : [ 207.0, 400.0, 50.0, 18.0 ],
					"numinlets" : 2,
					"fontsize" : 12.0,
					"presentation" : 1,
					"numoutlets" : 1
				}

			}
, 			{
				"box" : 				{
					"maxclass" : "newobj",
					"text" : "loadmess 0.7",
					"outlettype" : [ "" ],
					"id" : "obj-19",
					"fontname" : "Arial",
					"patching_rect" : [ 467.0, 664.0, 82.0, 20.0 ],
					"numinlets" : 1,
					"fontsize" : 12.0,
					"numoutlets" : 1
				}

			}
, 			{
				"box" : 				{
					"maxclass" : "number~",
					"outlettype" : [ "signal", "float" ],
					"mode" : 2,
					"id" : "obj-5",
					"fontname" : "Arial",
					"sig" : 0.0,
					"patching_rect" : [ 549.0, 664.0, 224.0, 20.0 ],
					"numinlets" : 2,
					"fontsize" : 12.0,
					"numoutlets" : 2
				}

			}
, 			{
				"box" : 				{
					"maxclass" : "meter~",
					"outlettype" : [ "float" ],
					"id" : "obj-45",
					"presentation_rect" : [ 20.0, 101.0, 149.0, 13.0 ],
					"patching_rect" : [ 323.0, 808.0, 80.0, 13.0 ],
					"numinlets" : 1,
					"presentation" : 1,
					"numoutlets" : 1
				}

			}
, 			{
				"box" : 				{
					"maxclass" : "message",
					"text" : "100, 18000 $1 100 $1",
					"outlettype" : [ "" ],
					"id" : "obj-42",
					"fontname" : "Arial",
					"patching_rect" : [ 526.0, 570.0, 127.0, 18.0 ],
					"numinlets" : 2,
					"fontsize" : 12.0,
					"numoutlets" : 1
				}

			}
, 			{
				"box" : 				{
					"maxclass" : "newobj",
					"text" : "line~",
					"outlettype" : [ "signal", "bang" ],
					"id" : "obj-41",
					"fontname" : "Arial",
					"patching_rect" : [ 516.0, 615.0, 36.0, 20.0 ],
					"numinlets" : 2,
					"fontsize" : 12.0,
					"numoutlets" : 2
				}

			}
, 			{
				"box" : 				{
					"maxclass" : "flonum",
					"outlettype" : [ "float", "bang" ],
					"id" : "obj-39",
					"fontname" : "Arial",
					"patching_rect" : [ 465.0, 703.0, 50.0, 20.0 ],
					"numinlets" : 1,
					"fontsize" : 12.0,
					"numoutlets" : 2
				}

			}
, 			{
				"box" : 				{
					"maxclass" : "newobj",
					"text" : "reson~",
					"outlettype" : [ "signal" ],
					"id" : "obj-36",
					"fontname" : "Arial",
					"patching_rect" : [ 333.0, 770.0, 270.5, 20.0 ],
					"numinlets" : 4,
					"fontsize" : 12.0,
					"numoutlets" : 1
				}

			}
, 			{
				"box" : 				{
					"maxclass" : "meter~",
					"outlettype" : [ "float" ],
					"id" : "obj-35",
					"patching_rect" : [ 330.0, 739.0, 80.0, 13.0 ],
					"numinlets" : 1,
					"numoutlets" : 1
				}

			}
, 			{
				"box" : 				{
					"maxclass" : "newobj",
					"text" : "*~",
					"outlettype" : [ "signal" ],
					"id" : "obj-32",
					"fontname" : "Arial",
					"patching_rect" : [ 288.0, 712.0, 32.5, 20.0 ],
					"numinlets" : 2,
					"fontsize" : 12.0,
					"numoutlets" : 1
				}

			}
, 			{
				"box" : 				{
					"maxclass" : "message",
					"text" : "84",
					"outlettype" : [ "" ],
					"id" : "obj-29",
					"fontname" : "Arial",
					"patching_rect" : [ 380.0, 602.0, 50.0, 18.0 ],
					"numinlets" : 2,
					"fontsize" : 12.0,
					"numoutlets" : 1
				}

			}
, 			{
				"box" : 				{
					"maxclass" : "newobj",
					"text" : "timer",
					"outlettype" : [ "float", "" ],
					"id" : "obj-24",
					"fontname" : "Arial",
					"patching_rect" : [ 557.0, 462.0, 37.0, 20.0 ],
					"numinlets" : 2,
					"fontsize" : 12.0,
					"numoutlets" : 2
				}

			}
, 			{
				"box" : 				{
					"maxclass" : "message",
					"text" : "0, 0.7 $1 0 $1",
					"outlettype" : [ "" ],
					"id" : "obj-23",
					"fontname" : "Arial",
					"patching_rect" : [ 349.0, 644.0, 84.0, 18.0 ],
					"numinlets" : 2,
					"fontsize" : 12.0,
					"numoutlets" : 1
				}

			}
, 			{
				"box" : 				{
					"maxclass" : "newobj",
					"text" : "line~",
					"outlettype" : [ "signal", "bang" ],
					"id" : "obj-15",
					"fontname" : "Arial",
					"patching_rect" : [ 309.0, 674.0, 36.0, 20.0 ],
					"numinlets" : 2,
					"fontsize" : 12.0,
					"numoutlets" : 2
				}

			}
, 			{
				"box" : 				{
					"maxclass" : "newobj",
					"text" : "noise~",
					"outlettype" : [ "signal" ],
					"id" : "obj-14",
					"fontname" : "Arial",
					"patching_rect" : [ 238.0, 590.0, 46.0, 20.0 ],
					"numinlets" : 1,
					"fontsize" : 12.0,
					"numoutlets" : 1
				}

			}
, 			{
				"box" : 				{
					"maxclass" : "newobj",
					"text" : "change 0 -",
					"outlettype" : [ "", "int", "int" ],
					"id" : "obj-12",
					"fontname" : "Arial",
					"patching_rect" : [ 339.0, 478.0, 67.0, 20.0 ],
					"numinlets" : 1,
					"fontsize" : 12.0,
					"numoutlets" : 3
				}

			}
, 			{
				"box" : 				{
					"maxclass" : "button",
					"outlettype" : [ "bang" ],
					"id" : "obj-8",
					"patching_rect" : [ 285.0, 306.0, 20.0, 20.0 ],
					"numinlets" : 1,
					"numoutlets" : 1
				}

			}
, 			{
				"box" : 				{
					"maxclass" : "newobj",
					"text" : "+ 2",
					"outlettype" : [ "int" ],
					"id" : "obj-4",
					"fontname" : "Arial",
					"patching_rect" : [ 190.0, 363.0, 32.5, 20.0 ],
					"numinlets" : 2,
					"fontsize" : 12.0,
					"numoutlets" : 1
				}

			}
, 			{
				"box" : 				{
					"maxclass" : "newobj",
					"text" : "random 15",
					"outlettype" : [ "int" ],
					"id" : "obj-2",
					"fontname" : "Arial",
					"patching_rect" : [ 190.0, 339.0, 68.0, 20.0 ],
					"numinlets" : 2,
					"fontsize" : 12.0,
					"numoutlets" : 1
				}

			}
, 			{
				"box" : 				{
					"maxclass" : "button",
					"outlettype" : [ "bang" ],
					"id" : "obj-40",
					"patching_rect" : [ 443.0, 490.0, 20.0, 20.0 ],
					"numinlets" : 1,
					"numoutlets" : 1
				}

			}
, 			{
				"box" : 				{
					"maxclass" : "toggle",
					"outlettype" : [ "int" ],
					"id" : "obj-37",
					"patching_rect" : [ 403.0, 408.0, 20.0, 20.0 ],
					"numinlets" : 1,
					"numoutlets" : 1
				}

			}
, 			{
				"box" : 				{
					"maxclass" : "message",
					"text" : "0",
					"outlettype" : [ "" ],
					"id" : "obj-34",
					"fontname" : "Arial",
					"patching_rect" : [ 190.0, 431.0, 32.5, 18.0 ],
					"numinlets" : 2,
					"fontsize" : 12.0,
					"numoutlets" : 1
				}

			}
, 			{
				"box" : 				{
					"maxclass" : "message",
					"text" : "1",
					"outlettype" : [ "" ],
					"id" : "obj-33",
					"fontname" : "Arial",
					"patching_rect" : [ 144.0, 429.0, 32.5, 18.0 ],
					"numinlets" : 2,
					"fontsize" : 12.0,
					"numoutlets" : 1
				}

			}
, 			{
				"box" : 				{
					"maxclass" : "newobj",
					"text" : "gate 1",
					"outlettype" : [ "" ],
					"id" : "obj-31",
					"fontname" : "Arial",
					"patching_rect" : [ 414.0, 440.0, 44.0, 20.0 ],
					"numinlets" : 2,
					"fontsize" : 12.0,
					"numoutlets" : 1
				}

			}
, 			{
				"box" : 				{
					"maxclass" : "message",
					"text" : "8n",
					"outlettype" : [ "" ],
					"id" : "obj-30",
					"fontname" : "Arial",
					"patching_rect" : [ 358.0, 207.0, 32.5, 18.0 ],
					"numinlets" : 2,
					"fontsize" : 12.0,
					"numoutlets" : 1
				}

			}
, 			{
				"box" : 				{
					"maxclass" : "newobj",
					"text" : "sel 16",
					"outlettype" : [ "bang", "" ],
					"id" : "obj-28",
					"fontname" : "Arial",
					"patching_rect" : [ 110.0, 383.0, 43.0, 20.0 ],
					"numinlets" : 2,
					"fontsize" : 12.0,
					"numoutlets" : 2
				}

			}
, 			{
				"box" : 				{
					"maxclass" : "number",
					"outlettype" : [ "int", "bang" ],
					"id" : "obj-27",
					"fontname" : "Arial",
					"presentation_rect" : [ 95.0, 27.0, 50.0, 20.0 ],
					"patching_rect" : [ 99.0, 339.0, 50.0, 20.0 ],
					"numinlets" : 1,
					"fontsize" : 12.0,
					"presentation" : 1,
					"numoutlets" : 2
				}

			}
, 			{
				"box" : 				{
					"maxclass" : "button",
					"outlettype" : [ "bang" ],
					"id" : "obj-25",
					"presentation_rect" : [ 137.0, 4.0, 20.0, 20.0 ],
					"patching_rect" : [ 99.0, 264.0, 20.0, 20.0 ],
					"numinlets" : 1,
					"presentation" : 1,
					"ignoreclick" : 1,
					"numoutlets" : 1
				}

			}
, 			{
				"box" : 				{
					"maxclass" : "newobj",
					"text" : "counter 16",
					"outlettype" : [ "int", "", "", "int" ],
					"id" : "obj-22",
					"fontname" : "Arial",
					"patching_rect" : [ 99.0, 304.0, 73.0, 20.0 ],
					"numinlets" : 5,
					"fontsize" : 12.0,
					"numoutlets" : 4
				}

			}
, 			{
				"box" : 				{
					"maxclass" : "newobj",
					"text" : "loadbang",
					"outlettype" : [ "bang" ],
					"id" : "obj-18",
					"fontname" : "Arial",
					"patching_rect" : [ 222.0, 107.0, 60.0, 20.0 ],
					"numinlets" : 1,
					"fontsize" : 12.0,
					"numoutlets" : 1
				}

			}
, 			{
				"box" : 				{
					"maxclass" : "message",
					"text" : "1n",
					"outlettype" : [ "" ],
					"id" : "obj-16",
					"fontname" : "Arial",
					"patching_rect" : [ 98.0, 204.0, 32.5, 18.0 ],
					"numinlets" : 2,
					"fontsize" : 12.0,
					"numoutlets" : 1
				}

			}
, 			{
				"box" : 				{
					"maxclass" : "button",
					"outlettype" : [ "bang" ],
					"id" : "obj-10",
					"presentation_rect" : [ 97.0, 76.0, 20.0, 20.0 ],
					"patching_rect" : [ 126.0, 488.0, 20.0, 20.0 ],
					"numinlets" : 1,
					"presentation" : 1,
					"numoutlets" : 1
				}

			}
, 			{
				"box" : 				{
					"maxclass" : "button",
					"outlettype" : [ "bang" ],
					"id" : "obj-6",
					"patching_rect" : [ 393.0, 330.0, 20.0, 20.0 ],
					"numinlets" : 1,
					"numoutlets" : 1
				}

			}
, 			{
				"box" : 				{
					"maxclass" : "newobj",
					"text" : "s ---ticks",
					"id" : "obj-20",
					"fontname" : "Arial",
					"patching_rect" : [ 675.0, 117.0, 56.0, 20.0 ],
					"numinlets" : 1,
					"fontsize" : 12.0,
					"numoutlets" : 0
				}

			}
, 			{
				"box" : 				{
					"maxclass" : "comment",
					"text" : "Meter",
					"id" : "obj-7",
					"fontname" : "Arial",
					"patching_rect" : [ 934.375, 45.0, 43.0, 20.0 ],
					"numinlets" : 1,
					"fontsize" : 12.0,
					"numoutlets" : 0
				}

			}
, 			{
				"box" : 				{
					"maxclass" : "newobj",
					"text" : "change",
					"outlettype" : [ "", "int", "int" ],
					"id" : "obj-17",
					"fontname" : "Arial",
					"patching_rect" : [ 567.0, 88.0, 50.0, 20.0 ],
					"numinlets" : 1,
					"fontsize" : 12.0,
					"numoutlets" : 3
				}

			}
, 			{
				"box" : 				{
					"maxclass" : "message",
					"text" : "tempo $1",
					"outlettype" : [ "" ],
					"id" : "obj-13",
					"fontname" : "Arial",
					"patching_rect" : [ 567.0, 117.0, 61.0, 18.0 ],
					"numinlets" : 2,
					"fontsize" : 12.0,
					"numoutlets" : 1
				}

			}
, 			{
				"box" : 				{
					"maxclass" : "newobj",
					"text" : "unpack f i",
					"outlettype" : [ "float", "int" ],
					"id" : "obj-9",
					"fontname" : "Arial",
					"patching_rect" : [ 567.0, 61.0, 127.0, 20.0 ],
					"numinlets" : 1,
					"fontsize" : 12.0,
					"numoutlets" : 2
				}

			}
, 			{
				"box" : 				{
					"maxclass" : "newobj",
					"text" : "transport",
					"outlettype" : [ "int", "int", "float", "float", "float", "", "int", "float", "" ],
					"id" : "obj-21",
					"fontname" : "Arial",
					"patching_rect" : [ 567.0, 146.0, 127.0, 20.0 ],
					"numinlets" : 2,
					"fontsize" : 12.0,
					"numoutlets" : 9
				}

			}
, 			{
				"box" : 				{
					"maxclass" : "newobj",
					"text" : "loadmess 1",
					"outlettype" : [ "" ],
					"id" : "obj-3",
					"fontname" : "Arial",
					"patching_rect" : [ 996.75, 11.0, 72.0, 20.0 ],
					"numinlets" : 1,
					"fontsize" : 12.0,
					"numoutlets" : 1
				}

			}
, 			{
				"box" : 				{
					"maxclass" : "newobj",
					"text" : "p tick_metro",
					"outlettype" : [ "bang" ],
					"id" : "obj-212",
					"fontname" : "Arial",
					"patching_rect" : [ 100.5, 235.0, 76.0, 20.0 ],
					"numinlets" : 1,
					"fontsize" : 12.0,
					"numoutlets" : 1,
					"patcher" : 					{
						"fileversion" : 1,
						"rect" : [ 910.0, 289.0, 527.0, 535.0 ],
						"bglocked" : 0,
						"defrect" : [ 910.0, 289.0, 527.0, 535.0 ],
						"openrect" : [ 0.0, 0.0, 0.0, 0.0 ],
						"openinpresentation" : 0,
						"default_fontsize" : 12.0,
						"default_fontface" : 0,
						"default_fontname" : "Arial",
						"gridonopen" : 0,
						"gridsize" : [ 15.0, 15.0 ],
						"gridsnaponopen" : 0,
						"toolbarvisible" : 1,
						"boxanimatetime" : 200,
						"imprint" : 0,
						"enablehscroll" : 1,
						"enablevscroll" : 1,
						"devicewidth" : 0.0,
						"visible" : 1,
						"boxes" : [ 							{
								"box" : 								{
									"maxclass" : "newobj",
									"text" : "t b 0",
									"outlettype" : [ "bang", "int" ],
									"id" : "obj-32",
									"fontname" : "Arial",
									"patching_rect" : [ 313.5, 221.0, 34.0, 20.0 ],
									"numinlets" : 1,
									"fontsize" : 12.0,
									"numoutlets" : 2
								}

							}
, 							{
								"box" : 								{
									"maxclass" : "newobj",
									"text" : "t i i",
									"outlettype" : [ "int", "int" ],
									"id" : "obj-31",
									"fontname" : "Arial",
									"patching_rect" : [ 211.0, 143.0, 121.5, 20.0 ],
									"numinlets" : 1,
									"fontsize" : 12.0,
									"numoutlets" : 2
								}

							}
, 							{
								"box" : 								{
									"maxclass" : "newobj",
									"text" : "sel 0",
									"outlettype" : [ "bang", "" ],
									"id" : "obj-30",
									"fontname" : "Arial",
									"patching_rect" : [ 313.5, 180.0, 36.0, 20.0 ],
									"numinlets" : 2,
									"fontsize" : 12.0,
									"numoutlets" : 2
								}

							}
, 							{
								"box" : 								{
									"maxclass" : "newobj",
									"text" : "%",
									"outlettype" : [ "int" ],
									"id" : "obj-28",
									"fontname" : "Arial",
									"patching_rect" : [ 211.0, 111.0, 109.5, 20.0 ],
									"numinlets" : 2,
									"fontsize" : 12.0,
									"numoutlets" : 1
								}

							}
, 							{
								"box" : 								{
									"maxclass" : "newobj",
									"text" : "r ---snapback_length",
									"outlettype" : [ "" ],
									"id" : "obj-27",
									"fontname" : "Arial",
									"patching_rect" : [ 301.5, 36.0, 121.0, 20.0 ],
									"numinlets" : 0,
									"fontsize" : 12.0,
									"numoutlets" : 1
								}

							}
, 							{
								"box" : 								{
									"maxclass" : "newobj",
									"text" : "sel 1",
									"outlettype" : [ "bang", "" ],
									"id" : "obj-23",
									"fontname" : "Arial",
									"patching_rect" : [ 211.0, 407.0, 212.0, 20.0 ],
									"numinlets" : 2,
									"fontsize" : 12.0,
									"numoutlets" : 2
								}

							}
, 							{
								"box" : 								{
									"maxclass" : "number",
									"outlettype" : [ "int", "bang" ],
									"id" : "obj-18",
									"fontname" : "Arial",
									"patching_rect" : [ 404.0, 333.0, 50.0, 20.0 ],
									"numinlets" : 1,
									"fontsize" : 12.0,
									"numoutlets" : 2
								}

							}
, 							{
								"box" : 								{
									"maxclass" : "newobj",
									"text" : "i",
									"outlettype" : [ "int" ],
									"id" : "obj-13",
									"fontname" : "Arial",
									"patching_rect" : [ 404.0, 303.0, 32.5, 20.0 ],
									"numinlets" : 2,
									"fontsize" : 12.0,
									"numoutlets" : 1
								}

							}
, 							{
								"box" : 								{
									"maxclass" : "newobj",
									"text" : "+",
									"outlettype" : [ "int" ],
									"id" : "obj-12",
									"fontname" : "Arial",
									"patching_rect" : [ 404.0, 254.0, 32.5, 20.0 ],
									"numinlets" : 2,
									"fontsize" : 12.0,
									"numoutlets" : 1
								}

							}
, 							{
								"box" : 								{
									"maxclass" : "newobj",
									"text" : "r ---ticks",
									"outlettype" : [ "" ],
									"id" : "obj-8",
									"fontname" : "Arial",
									"patching_rect" : [ 211.0, 36.0, 54.0, 20.0 ],
									"numinlets" : 0,
									"fontsize" : 12.0,
									"numoutlets" : 1
								}

							}
, 							{
								"box" : 								{
									"maxclass" : "newobj",
									"text" : "expr ($i1/480.)*16.",
									"outlettype" : [ "" ],
									"id" : "obj-3",
									"fontname" : "Arial",
									"patching_rect" : [ 39.0, 147.0, 109.0, 20.0 ],
									"numinlets" : 1,
									"fontsize" : 12.0,
									"numoutlets" : 1
								}

							}
, 							{
								"box" : 								{
									"maxclass" : "newobj",
									"text" : "translate notevalues ticks",
									"outlettype" : [ "" ],
									"id" : "obj-1",
									"fontname" : "Arial",
									"patching_rect" : [ 39.0, 115.0, 145.0, 20.0 ],
									"numinlets" : 1,
									"fontsize" : 12.0,
									"numoutlets" : 1
								}

							}
, 							{
								"box" : 								{
									"maxclass" : "comment",
									"text" : "Divisions In",
									"id" : "obj-10",
									"fontname" : "Arial",
									"patching_rect" : [ 65.5, 40.0, 81.0, 20.0 ],
									"numinlets" : 1,
									"fontsize" : 12.0,
									"numoutlets" : 0
								}

							}
, 							{
								"box" : 								{
									"maxclass" : "inlet",
									"outlettype" : [ "" ],
									"id" : "obj-208",
									"patching_rect" : [ 39.0, 36.0, 25.0, 25.0 ],
									"numinlets" : 0,
									"numoutlets" : 1,
									"comment" : ""
								}

							}
, 							{
								"box" : 								{
									"maxclass" : "outlet",
									"id" : "obj-209",
									"patching_rect" : [ 211.0, 460.0, 25.0, 25.0 ],
									"numinlets" : 1,
									"numoutlets" : 0,
									"comment" : ""
								}

							}
 ],
						"lines" : [ 							{
								"patchline" : 								{
									"source" : [ "obj-8", 0 ],
									"destination" : [ "obj-28", 0 ],
									"hidden" : 0,
									"midpoints" : [  ]
								}

							}
, 							{
								"patchline" : 								{
									"source" : [ "obj-32", 0 ],
									"destination" : [ "obj-209", 0 ],
									"hidden" : 0,
									"midpoints" : [ 323.0, 448.0, 220.5, 448.0 ]
								}

							}
, 							{
								"patchline" : 								{
									"source" : [ "obj-32", 1 ],
									"destination" : [ "obj-13", 1 ],
									"hidden" : 0,
									"midpoints" : [ 338.0, 288.5, 427.0, 288.5 ]
								}

							}
, 							{
								"patchline" : 								{
									"source" : [ "obj-32", 1 ],
									"destination" : [ "obj-12", 1 ],
									"hidden" : 0,
									"midpoints" : [ 338.0, 247.0, 427.0, 247.0 ]
								}

							}
, 							{
								"patchline" : 								{
									"source" : [ "obj-31", 1 ],
									"destination" : [ "obj-30", 0 ],
									"hidden" : 0,
									"midpoints" : [  ]
								}

							}
, 							{
								"patchline" : 								{
									"source" : [ "obj-31", 0 ],
									"destination" : [ "obj-23", 0 ],
									"hidden" : 0,
									"midpoints" : [  ]
								}

							}
, 							{
								"patchline" : 								{
									"source" : [ "obj-30", 0 ],
									"destination" : [ "obj-32", 0 ],
									"hidden" : 0,
									"midpoints" : [  ]
								}

							}
, 							{
								"patchline" : 								{
									"source" : [ "obj-3", 0 ],
									"destination" : [ "obj-12", 0 ],
									"hidden" : 0,
									"midpoints" : [ 48.5, 212.0, 413.5, 212.0 ]
								}

							}
, 							{
								"patchline" : 								{
									"source" : [ "obj-28", 0 ],
									"destination" : [ "obj-31", 0 ],
									"hidden" : 0,
									"midpoints" : [  ]
								}

							}
, 							{
								"patchline" : 								{
									"source" : [ "obj-27", 0 ],
									"destination" : [ "obj-28", 1 ],
									"hidden" : 0,
									"midpoints" : [  ]
								}

							}
, 							{
								"patchline" : 								{
									"source" : [ "obj-23", 0 ],
									"destination" : [ "obj-209", 0 ],
									"hidden" : 0,
									"midpoints" : [ 220.5, 416.0, 220.5, 416.0 ]
								}

							}
, 							{
								"patchline" : 								{
									"source" : [ "obj-208", 0 ],
									"destination" : [ "obj-1", 0 ],
									"hidden" : 0,
									"midpoints" : [ 48.5, 80.5, 48.5, 80.5 ]
								}

							}
, 							{
								"patchline" : 								{
									"source" : [ "obj-18", 0 ],
									"destination" : [ "obj-23", 1 ],
									"hidden" : 0,
									"midpoints" : [  ]
								}

							}
, 							{
								"patchline" : 								{
									"source" : [ "obj-13", 0 ],
									"destination" : [ "obj-18", 0 ],
									"hidden" : 0,
									"midpoints" : [  ]
								}

							}
, 							{
								"patchline" : 								{
									"source" : [ "obj-13", 0 ],
									"destination" : [ "obj-12", 1 ],
									"hidden" : 0,
									"midpoints" : [ 413.5, 323.0, 447.0, 323.0, 447.0, 251.0, 427.0, 251.0 ]
								}

							}
, 							{
								"patchline" : 								{
									"source" : [ "obj-12", 0 ],
									"destination" : [ "obj-13", 0 ],
									"hidden" : 0,
									"midpoints" : [  ]
								}

							}
, 							{
								"patchline" : 								{
									"source" : [ "obj-1", 0 ],
									"destination" : [ "obj-3", 0 ],
									"hidden" : 0,
									"midpoints" : [  ]
								}

							}
 ]
					}
,
					"saved_object_attributes" : 					{
						"default_fontface" : 0,
						"default_fontname" : "Arial",
						"fontname" : "Arial",
						"default_fontsize" : 12.0,
						"globalpatchername" : "",
						"fontface" : 0,
						"fontsize" : 12.0
					}

				}

			}
, 			{
				"box" : 				{
					"maxclass" : "newobj",
					"text" : "p tick_metro",
					"outlettype" : [ "bang" ],
					"id" : "obj-211",
					"fontname" : "Arial",
					"patching_rect" : [ 371.5, 308.0, 76.0, 20.0 ],
					"numinlets" : 1,
					"fontsize" : 12.0,
					"numoutlets" : 1,
					"patcher" : 					{
						"fileversion" : 1,
						"rect" : [ 638.0, 193.0, 527.0, 535.0 ],
						"bglocked" : 0,
						"defrect" : [ 638.0, 193.0, 527.0, 535.0 ],
						"openrect" : [ 0.0, 0.0, 0.0, 0.0 ],
						"openinpresentation" : 0,
						"default_fontsize" : 12.0,
						"default_fontface" : 0,
						"default_fontname" : "Arial",
						"gridonopen" : 0,
						"gridsize" : [ 15.0, 15.0 ],
						"gridsnaponopen" : 0,
						"toolbarvisible" : 1,
						"boxanimatetime" : 200,
						"imprint" : 0,
						"enablehscroll" : 1,
						"enablevscroll" : 1,
						"devicewidth" : 0.0,
						"boxes" : [ 							{
								"box" : 								{
									"maxclass" : "newobj",
									"text" : "t b 0",
									"outlettype" : [ "bang", "int" ],
									"id" : "obj-32",
									"fontname" : "Arial",
									"patching_rect" : [ 313.5, 221.0, 34.0, 20.0 ],
									"numinlets" : 1,
									"fontsize" : 12.0,
									"numoutlets" : 2
								}

							}
, 							{
								"box" : 								{
									"maxclass" : "newobj",
									"text" : "t i i",
									"outlettype" : [ "int", "int" ],
									"id" : "obj-31",
									"fontname" : "Arial",
									"patching_rect" : [ 211.0, 143.0, 121.5, 20.0 ],
									"numinlets" : 1,
									"fontsize" : 12.0,
									"numoutlets" : 2
								}

							}
, 							{
								"box" : 								{
									"maxclass" : "newobj",
									"text" : "sel 0",
									"outlettype" : [ "bang", "" ],
									"id" : "obj-30",
									"fontname" : "Arial",
									"patching_rect" : [ 313.5, 180.0, 36.0, 20.0 ],
									"numinlets" : 2,
									"fontsize" : 12.0,
									"numoutlets" : 2
								}

							}
, 							{
								"box" : 								{
									"maxclass" : "newobj",
									"text" : "%",
									"outlettype" : [ "int" ],
									"id" : "obj-28",
									"fontname" : "Arial",
									"patching_rect" : [ 211.0, 111.0, 109.5, 20.0 ],
									"numinlets" : 2,
									"fontsize" : 12.0,
									"numoutlets" : 1
								}

							}
, 							{
								"box" : 								{
									"maxclass" : "newobj",
									"text" : "r ---snapback_length",
									"outlettype" : [ "" ],
									"id" : "obj-27",
									"fontname" : "Arial",
									"patching_rect" : [ 301.5, 36.0, 121.0, 20.0 ],
									"numinlets" : 0,
									"fontsize" : 12.0,
									"numoutlets" : 1
								}

							}
, 							{
								"box" : 								{
									"maxclass" : "newobj",
									"text" : "sel 1",
									"outlettype" : [ "bang", "" ],
									"id" : "obj-23",
									"fontname" : "Arial",
									"patching_rect" : [ 211.0, 407.0, 212.0, 20.0 ],
									"numinlets" : 2,
									"fontsize" : 12.0,
									"numoutlets" : 2
								}

							}
, 							{
								"box" : 								{
									"maxclass" : "number",
									"outlettype" : [ "int", "bang" ],
									"id" : "obj-18",
									"fontname" : "Arial",
									"patching_rect" : [ 404.0, 333.0, 50.0, 20.0 ],
									"numinlets" : 1,
									"fontsize" : 12.0,
									"numoutlets" : 2
								}

							}
, 							{
								"box" : 								{
									"maxclass" : "newobj",
									"text" : "i",
									"outlettype" : [ "int" ],
									"id" : "obj-13",
									"fontname" : "Arial",
									"patching_rect" : [ 404.0, 303.0, 32.5, 20.0 ],
									"numinlets" : 2,
									"fontsize" : 12.0,
									"numoutlets" : 1
								}

							}
, 							{
								"box" : 								{
									"maxclass" : "newobj",
									"text" : "+",
									"outlettype" : [ "int" ],
									"id" : "obj-12",
									"fontname" : "Arial",
									"patching_rect" : [ 404.0, 254.0, 32.5, 20.0 ],
									"numinlets" : 2,
									"fontsize" : 12.0,
									"numoutlets" : 1
								}

							}
, 							{
								"box" : 								{
									"maxclass" : "newobj",
									"text" : "r ---ticks",
									"outlettype" : [ "" ],
									"id" : "obj-8",
									"fontname" : "Arial",
									"patching_rect" : [ 211.0, 36.0, 54.0, 20.0 ],
									"numinlets" : 0,
									"fontsize" : 12.0,
									"numoutlets" : 1
								}

							}
, 							{
								"box" : 								{
									"maxclass" : "newobj",
									"text" : "expr ($i1/480.)*16.",
									"outlettype" : [ "" ],
									"id" : "obj-3",
									"fontname" : "Arial",
									"patching_rect" : [ 39.0, 147.0, 109.0, 20.0 ],
									"numinlets" : 1,
									"fontsize" : 12.0,
									"numoutlets" : 1
								}

							}
, 							{
								"box" : 								{
									"maxclass" : "newobj",
									"text" : "translate notevalues ticks",
									"outlettype" : [ "" ],
									"id" : "obj-1",
									"fontname" : "Arial",
									"patching_rect" : [ 39.0, 115.0, 145.0, 20.0 ],
									"numinlets" : 1,
									"fontsize" : 12.0,
									"numoutlets" : 1
								}

							}
, 							{
								"box" : 								{
									"maxclass" : "comment",
									"text" : "Divisions In",
									"id" : "obj-10",
									"fontname" : "Arial",
									"patching_rect" : [ 65.5, 40.0, 81.0, 20.0 ],
									"numinlets" : 1,
									"fontsize" : 12.0,
									"numoutlets" : 0
								}

							}
, 							{
								"box" : 								{
									"maxclass" : "inlet",
									"outlettype" : [ "" ],
									"id" : "obj-208",
									"patching_rect" : [ 39.0, 36.0, 25.0, 25.0 ],
									"numinlets" : 0,
									"numoutlets" : 1,
									"comment" : ""
								}

							}
, 							{
								"box" : 								{
									"maxclass" : "outlet",
									"id" : "obj-209",
									"patching_rect" : [ 211.0, 460.0, 25.0, 25.0 ],
									"numinlets" : 1,
									"numoutlets" : 0,
									"comment" : ""
								}

							}
 ],
						"lines" : [ 							{
								"patchline" : 								{
									"source" : [ "obj-8", 0 ],
									"destination" : [ "obj-28", 0 ],
									"hidden" : 0,
									"midpoints" : [  ]
								}

							}
, 							{
								"patchline" : 								{
									"source" : [ "obj-32", 0 ],
									"destination" : [ "obj-209", 0 ],
									"hidden" : 0,
									"midpoints" : [ 323.0, 448.0, 220.5, 448.0 ]
								}

							}
, 							{
								"patchline" : 								{
									"source" : [ "obj-32", 1 ],
									"destination" : [ "obj-13", 1 ],
									"hidden" : 0,
									"midpoints" : [ 338.0, 288.5, 427.0, 288.5 ]
								}

							}
, 							{
								"patchline" : 								{
									"source" : [ "obj-32", 1 ],
									"destination" : [ "obj-12", 1 ],
									"hidden" : 0,
									"midpoints" : [ 338.0, 247.0, 427.0, 247.0 ]
								}

							}
, 							{
								"patchline" : 								{
									"source" : [ "obj-31", 1 ],
									"destination" : [ "obj-30", 0 ],
									"hidden" : 0,
									"midpoints" : [  ]
								}

							}
, 							{
								"patchline" : 								{
									"source" : [ "obj-31", 0 ],
									"destination" : [ "obj-23", 0 ],
									"hidden" : 0,
									"midpoints" : [  ]
								}

							}
, 							{
								"patchline" : 								{
									"source" : [ "obj-30", 0 ],
									"destination" : [ "obj-32", 0 ],
									"hidden" : 0,
									"midpoints" : [  ]
								}

							}
, 							{
								"patchline" : 								{
									"source" : [ "obj-3", 0 ],
									"destination" : [ "obj-12", 0 ],
									"hidden" : 0,
									"midpoints" : [ 48.5, 212.0, 413.5, 212.0 ]
								}

							}
, 							{
								"patchline" : 								{
									"source" : [ "obj-28", 0 ],
									"destination" : [ "obj-31", 0 ],
									"hidden" : 0,
									"midpoints" : [  ]
								}

							}
, 							{
								"patchline" : 								{
									"source" : [ "obj-27", 0 ],
									"destination" : [ "obj-28", 1 ],
									"hidden" : 0,
									"midpoints" : [  ]
								}

							}
, 							{
								"patchline" : 								{
									"source" : [ "obj-23", 0 ],
									"destination" : [ "obj-209", 0 ],
									"hidden" : 0,
									"midpoints" : [ 220.5, 416.0, 220.5, 416.0 ]
								}

							}
, 							{
								"patchline" : 								{
									"source" : [ "obj-208", 0 ],
									"destination" : [ "obj-1", 0 ],
									"hidden" : 0,
									"midpoints" : [ 48.5, 80.5, 48.5, 80.5 ]
								}

							}
, 							{
								"patchline" : 								{
									"source" : [ "obj-18", 0 ],
									"destination" : [ "obj-23", 1 ],
									"hidden" : 0,
									"midpoints" : [  ]
								}

							}
, 							{
								"patchline" : 								{
									"source" : [ "obj-13", 0 ],
									"destination" : [ "obj-18", 0 ],
									"hidden" : 0,
									"midpoints" : [  ]
								}

							}
, 							{
								"patchline" : 								{
									"source" : [ "obj-13", 0 ],
									"destination" : [ "obj-12", 1 ],
									"hidden" : 0,
									"midpoints" : [ 413.5, 323.0, 447.0, 323.0, 447.0, 251.0, 427.0, 251.0 ]
								}

							}
, 							{
								"patchline" : 								{
									"source" : [ "obj-12", 0 ],
									"destination" : [ "obj-13", 0 ],
									"hidden" : 0,
									"midpoints" : [  ]
								}

							}
, 							{
								"patchline" : 								{
									"source" : [ "obj-1", 0 ],
									"destination" : [ "obj-3", 0 ],
									"hidden" : 0,
									"midpoints" : [  ]
								}

							}
 ]
					}
,
					"saved_object_attributes" : 					{
						"default_fontface" : 0,
						"default_fontname" : "Arial",
						"fontname" : "Arial",
						"default_fontsize" : 12.0,
						"globalpatchername" : "",
						"fontface" : 0,
						"fontsize" : 12.0
					}

				}

			}
, 			{
				"box" : 				{
					"maxclass" : "comment",
					"text" : "Time <tempo> <ticks>",
					"id" : "obj-194",
					"fontname" : "Arial",
					"patching_rect" : [ 592.0, 27.0, 138.0, 20.0 ],
					"numinlets" : 1,
					"fontsize" : 12.0,
					"numoutlets" : 0
				}

			}
, 			{
				"box" : 				{
					"maxclass" : "comment",
					"text" : "<beats per measure> <note value>",
					"linecount" : 2,
					"id" : "obj-193",
					"fontname" : "Arial",
					"patching_rect" : [ 853.375, 65.0, 126.0, 34.0 ],
					"numinlets" : 1,
					"fontsize" : 12.0,
					"numoutlets" : 0
				}

			}
, 			{
				"box" : 				{
					"maxclass" : "newobj",
					"text" : "p snapback",
					"outlettype" : [ "bang" ],
					"id" : "obj-191",
					"fontname" : "Arial",
					"patching_rect" : [ 917.5, 103.0, 138.75, 20.0 ],
					"numinlets" : 3,
					"fontsize" : 12.0,
					"numoutlets" : 1,
					"patcher" : 					{
						"fileversion" : 1,
						"rect" : [ 874.0, 330.0, 518.0, 445.0 ],
						"bglocked" : 0,
						"defrect" : [ 874.0, 330.0, 518.0, 445.0 ],
						"openrect" : [ 0.0, 0.0, 0.0, 0.0 ],
						"openinpresentation" : 0,
						"default_fontsize" : 12.0,
						"default_fontface" : 0,
						"default_fontname" : "Arial",
						"gridonopen" : 0,
						"gridsize" : [ 15.0, 15.0 ],
						"gridsnaponopen" : 0,
						"toolbarvisible" : 1,
						"boxanimatetime" : 200,
						"imprint" : 0,
						"enablehscroll" : 1,
						"enablevscroll" : 1,
						"devicewidth" : 0.0,
						"boxes" : [ 							{
								"box" : 								{
									"maxclass" : "newobj",
									"text" : "s ---snapback_length",
									"id" : "obj-4",
									"fontname" : "Arial",
									"patching_rect" : [ 248.0, 239.0, 123.0, 20.0 ],
									"numinlets" : 1,
									"fontsize" : 12.0,
									"numoutlets" : 0
								}

							}
, 							{
								"box" : 								{
									"maxclass" : "newobj",
									"text" : "t b i",
									"outlettype" : [ "bang", "int" ],
									"id" : "obj-3",
									"fontname" : "Arial",
									"patching_rect" : [ 278.25, 120.0, 32.5, 20.0 ],
									"numinlets" : 1,
									"fontsize" : 12.0,
									"numoutlets" : 2
								}

							}
, 							{
								"box" : 								{
									"maxclass" : "newobj",
									"text" : "expr ($i1*16)*$i2",
									"outlettype" : [ "" ],
									"id" : "obj-2",
									"fontname" : "Arial",
									"patching_rect" : [ 184.0, 187.0, 126.75, 20.0 ],
									"numinlets" : 2,
									"fontsize" : 12.0,
									"numoutlets" : 1
								}

							}
, 							{
								"box" : 								{
									"maxclass" : "newobj",
									"text" : "loadmess 4 4",
									"outlettype" : [ "" ],
									"id" : "obj-1",
									"fontname" : "Arial",
									"patching_rect" : [ 102.0, 83.0, 82.0, 20.0 ],
									"numinlets" : 1,
									"fontsize" : 12.0,
									"numoutlets" : 1
								}

							}
, 							{
								"box" : 								{
									"maxclass" : "comment",
									"text" : "Snapback Interval <measures>",
									"id" : "obj-14",
									"fontname" : "Arial",
									"patching_rect" : [ 303.25, 40.0, 178.0, 20.0 ],
									"numinlets" : 1,
									"fontsize" : 12.0,
									"numoutlets" : 0
								}

							}
, 							{
								"box" : 								{
									"maxclass" : "comment",
									"text" : "Meter In",
									"id" : "obj-13",
									"fontname" : "Arial",
									"patching_rect" : [ 209.0, 40.0, 57.0, 20.0 ],
									"numinlets" : 1,
									"fontsize" : 12.0,
									"numoutlets" : 0
								}

							}
, 							{
								"box" : 								{
									"maxclass" : "comment",
									"text" : "Ticks In",
									"id" : "obj-12",
									"fontname" : "Arial",
									"patching_rect" : [ 75.0, 40.0, 57.0, 20.0 ],
									"numinlets" : 1,
									"fontsize" : 12.0,
									"numoutlets" : 0
								}

							}
, 							{
								"box" : 								{
									"maxclass" : "comment",
									"text" : "snapback to start of table",
									"id" : "obj-9",
									"fontname" : "Arial",
									"patching_rect" : [ 82.25, 379.0, 150.0, 20.0 ],
									"numinlets" : 1,
									"fontsize" : 12.0,
									"numoutlets" : 0
								}

							}
, 							{
								"box" : 								{
									"maxclass" : "newobj",
									"text" : "sel 0",
									"outlettype" : [ "bang", "" ],
									"id" : "obj-116",
									"fontname" : "Arial",
									"patching_rect" : [ 50.0, 337.0, 36.0, 20.0 ],
									"numinlets" : 2,
									"fontsize" : 12.0,
									"numoutlets" : 2
								}

							}
, 							{
								"box" : 								{
									"maxclass" : "newobj",
									"text" : "unpack i i",
									"outlettype" : [ "int", "int" ],
									"id" : "obj-111",
									"fontname" : "Arial",
									"patching_rect" : [ 184.0, 120.0, 61.0, 20.0 ],
									"numinlets" : 1,
									"fontsize" : 12.0,
									"numoutlets" : 2
								}

							}
, 							{
								"box" : 								{
									"maxclass" : "newobj",
									"text" : "% 4",
									"outlettype" : [ "int" ],
									"id" : "obj-109",
									"fontname" : "Arial",
									"patching_rect" : [ 50.0, 306.0, 153.0, 20.0 ],
									"numinlets" : 2,
									"fontsize" : 12.0,
									"numoutlets" : 1
								}

							}
, 							{
								"box" : 								{
									"maxclass" : "inlet",
									"outlettype" : [ "int" ],
									"id" : "obj-174",
									"patching_rect" : [ 50.0, 40.0, 25.0, 25.0 ],
									"numinlets" : 0,
									"numoutlets" : 1,
									"comment" : ""
								}

							}
, 							{
								"box" : 								{
									"maxclass" : "inlet",
									"outlettype" : [ "" ],
									"id" : "obj-187",
									"patching_rect" : [ 184.0, 40.0, 25.0, 25.0 ],
									"numinlets" : 0,
									"numoutlets" : 1,
									"comment" : ""
								}

							}
, 							{
								"box" : 								{
									"maxclass" : "inlet",
									"outlettype" : [ "" ],
									"id" : "obj-188",
									"patching_rect" : [ 278.25, 40.0, 25.0, 25.0 ],
									"numinlets" : 0,
									"numoutlets" : 1,
									"comment" : ""
								}

							}
, 							{
								"box" : 								{
									"maxclass" : "outlet",
									"id" : "obj-190",
									"patching_rect" : [ 50.0, 377.0, 25.0, 25.0 ],
									"numinlets" : 1,
									"numoutlets" : 0,
									"comment" : ""
								}

							}
 ],
						"lines" : [ 							{
								"patchline" : 								{
									"source" : [ "obj-3", 0 ],
									"destination" : [ "obj-2", 0 ],
									"hidden" : 0,
									"midpoints" : [ 287.75, 163.0, 193.5, 163.0 ]
								}

							}
, 							{
								"patchline" : 								{
									"source" : [ "obj-3", 1 ],
									"destination" : [ "obj-2", 1 ],
									"hidden" : 0,
									"midpoints" : [  ]
								}

							}
, 							{
								"patchline" : 								{
									"source" : [ "obj-2", 0 ],
									"destination" : [ "obj-4", 0 ],
									"hidden" : 0,
									"midpoints" : [ 193.5, 222.5, 257.5, 222.5 ]
								}

							}
, 							{
								"patchline" : 								{
									"source" : [ "obj-2", 0 ],
									"destination" : [ "obj-109", 1 ],
									"hidden" : 0,
									"midpoints" : [  ]
								}

							}
, 							{
								"patchline" : 								{
									"source" : [ "obj-188", 0 ],
									"destination" : [ "obj-3", 0 ],
									"hidden" : 0,
									"midpoints" : [  ]
								}

							}
, 							{
								"patchline" : 								{
									"source" : [ "obj-187", 0 ],
									"destination" : [ "obj-111", 0 ],
									"hidden" : 0,
									"midpoints" : [  ]
								}

							}
, 							{
								"patchline" : 								{
									"source" : [ "obj-174", 0 ],
									"destination" : [ "obj-109", 0 ],
									"hidden" : 0,
									"midpoints" : [  ]
								}

							}
, 							{
								"patchline" : 								{
									"source" : [ "obj-116", 0 ],
									"destination" : [ "obj-190", 0 ],
									"hidden" : 0,
									"midpoints" : [  ]
								}

							}
, 							{
								"patchline" : 								{
									"source" : [ "obj-111", 0 ],
									"destination" : [ "obj-2", 0 ],
									"hidden" : 0,
									"midpoints" : [  ]
								}

							}
, 							{
								"patchline" : 								{
									"source" : [ "obj-109", 0 ],
									"destination" : [ "obj-116", 0 ],
									"hidden" : 0,
									"midpoints" : [  ]
								}

							}
, 							{
								"patchline" : 								{
									"source" : [ "obj-1", 0 ],
									"destination" : [ "obj-111", 0 ],
									"hidden" : 0,
									"midpoints" : [ 111.5, 111.0, 193.5, 111.0 ]
								}

							}
 ]
					}
,
					"saved_object_attributes" : 					{
						"default_fontface" : 0,
						"default_fontname" : "Arial",
						"fontname" : "Arial",
						"default_fontsize" : 12.0,
						"globalpatchername" : "",
						"fontface" : 0,
						"fontsize" : 12.0
					}

				}

			}
, 			{
				"box" : 				{
					"maxclass" : "inlet",
					"outlettype" : [ "" ],
					"id" : "obj-130",
					"patching_rect" : [ 567.0, 27.0, 25.0, 25.0 ],
					"numinlets" : 0,
					"numoutlets" : 1,
					"comment" : ""
				}

			}
, 			{
				"box" : 				{
					"maxclass" : "inlet",
					"outlettype" : [ "" ],
					"id" : "obj-61",
					"patching_rect" : [ 977.375, 65.0, 25.0, 25.0 ],
					"numinlets" : 0,
					"numoutlets" : 1,
					"comment" : ""
				}

			}
, 			{
				"box" : 				{
					"maxclass" : "outlet",
					"id" : "obj-11",
					"patching_rect" : [ 263.5625, 793.0, 25.0, 25.0 ],
					"numinlets" : 1,
					"numoutlets" : 0,
					"comment" : ""
				}

			}
, 			{
				"box" : 				{
					"maxclass" : "newobj",
					"text" : "s ---snapback",
					"id" : "obj-186",
					"fontname" : "Arial Bold",
					"patching_rect" : [ 953.75, 164.0, 75.0, 18.0 ],
					"numinlets" : 1,
					"fontsize" : 10.0,
					"numoutlets" : 0
				}

			}
, 			{
				"box" : 				{
					"maxclass" : "button",
					"outlettype" : [ "bang" ],
					"id" : "obj-149",
					"patching_rect" : [ 953.75, 134.0, 20.0, 20.0 ],
					"numinlets" : 1,
					"numoutlets" : 1
				}

			}
, 			{
				"box" : 				{
					"maxclass" : "newobj",
					"text" : "zl slice 1",
					"outlettype" : [ "", "" ],
					"id" : "obj-152",
					"fontname" : "Arial Bold",
					"patching_rect" : [ 1037.25, 61.0, 52.0, 18.0 ],
					"numinlets" : 2,
					"fontsize" : 10.0,
					"numoutlets" : 2
				}

			}
, 			{
				"box" : 				{
					"maxclass" : "live.menu",
					"varname" : "Rate",
					"pictures" : [  ],
					"outlettype" : [ "", "", "float" ],
					"id" : "obj-154",
					"fontname" : "Arial Bold",
					"patching_rect" : [ 996.75, 37.0, 100.0, 15.0 ],
					"numinlets" : 1,
					"parameter_enable" : 1,
					"numoutlets" : 3,
					"saved_attribute_attributes" : 					{
						"valueof" : 						{
							"parameter_order" : 0,
							"parameter_defer" : 0,
							"parameter_speedlim" : 1.0,
							"parameter_invisible" : 0,
							"parameter_steps" : 0,
							"parameter_annotation_name" : "",
							"parameter_enum" : [ "1 bar", "2 bars", "3 bars", "4 bars", "5 bars", "5 bars", "6 bars", "7 bars", "8 bars", "9 bars", "10 bars", "11 bars", "12 bars", "13 bars", "14 bars", "15 bars", "16 bars" ],
							"parameter_exponent" : 1.0,
							"parameter_unitstyle" : 10,
							"parameter_mmax" : 127.0,
							"parameter_mmin" : 0.0,
							"parameter_type" : 2,
							"parameter_initial_enable" : 0,
							"parameter_shortname" : "Rate",
							"parameter_modmax" : 127.0,
							"parameter_longname" : "Rate",
							"parameter_modmin" : 0.0,
							"parameter_linknames" : 1,
							"parameter_modmode" : 0,
							"parameter_info" : "",
							"parameter_units" : ""
						}

					}

				}

			}
, 			{
				"box" : 				{
					"maxclass" : "comment",
					"text" : "Division",
					"id" : "obj-96",
					"fontname" : "Arial Bold",
					"patching_rect" : [ 441.25, 274.0, 56.0, 18.0 ],
					"numinlets" : 1,
					"fontsize" : 10.0,
					"numoutlets" : 0
				}

			}
, 			{
				"box" : 				{
					"maxclass" : "comment",
					"text" : "Division",
					"id" : "obj-95",
					"fontname" : "Arial Bold",
					"patching_rect" : [ 165.625, 201.0, 56.0, 18.0 ],
					"numinlets" : 1,
					"fontsize" : 10.0,
					"numoutlets" : 0
				}

			}
 ],
		"lines" : [ 			{
				"patchline" : 				{
					"source" : [ "obj-38", 0 ],
					"destination" : [ "obj-23", 0 ],
					"hidden" : 0,
					"midpoints" : [  ]
				}

			}
, 			{
				"patchline" : 				{
					"source" : [ "obj-38", 0 ],
					"destination" : [ "obj-29", 1 ],
					"hidden" : 0,
					"midpoints" : [  ]
				}

			}
, 			{
				"patchline" : 				{
					"source" : [ "obj-10", 0 ],
					"destination" : [ "obj-38", 0 ],
					"hidden" : 0,
					"midpoints" : [  ]
				}

			}
, 			{
				"patchline" : 				{
					"source" : [ "obj-38", 0 ],
					"destination" : [ "obj-42", 0 ],
					"hidden" : 0,
					"midpoints" : [  ]
				}

			}
, 			{
				"patchline" : 				{
					"source" : [ "obj-19", 0 ],
					"destination" : [ "obj-39", 0 ],
					"hidden" : 0,
					"midpoints" : [  ]
				}

			}
, 			{
				"patchline" : 				{
					"source" : [ "obj-41", 0 ],
					"destination" : [ "obj-5", 0 ],
					"hidden" : 0,
					"midpoints" : [  ]
				}

			}
, 			{
				"patchline" : 				{
					"source" : [ "obj-31", 0 ],
					"destination" : [ "obj-40", 0 ],
					"hidden" : 0,
					"midpoints" : [  ]
				}

			}
, 			{
				"patchline" : 				{
					"source" : [ "obj-33", 0 ],
					"destination" : [ "obj-37", 0 ],
					"hidden" : 0,
					"midpoints" : [  ]
				}

			}
, 			{
				"patchline" : 				{
					"source" : [ "obj-34", 0 ],
					"destination" : [ "obj-37", 0 ],
					"hidden" : 0,
					"midpoints" : [  ]
				}

			}
, 			{
				"patchline" : 				{
					"source" : [ "obj-37", 0 ],
					"destination" : [ "obj-31", 0 ],
					"hidden" : 0,
					"midpoints" : [  ]
				}

			}
, 			{
				"patchline" : 				{
					"source" : [ "obj-28", 1 ],
					"destination" : [ "obj-34", 0 ],
					"hidden" : 0,
					"midpoints" : [  ]
				}

			}
, 			{
				"patchline" : 				{
					"source" : [ "obj-28", 0 ],
					"destination" : [ "obj-33", 0 ],
					"hidden" : 0,
					"midpoints" : [  ]
				}

			}
, 			{
				"patchline" : 				{
					"source" : [ "obj-6", 0 ],
					"destination" : [ "obj-31", 1 ],
					"hidden" : 0,
					"midpoints" : [  ]
				}

			}
, 			{
				"patchline" : 				{
					"source" : [ "obj-18", 0 ],
					"destination" : [ "obj-30", 0 ],
					"hidden" : 0,
					"midpoints" : [  ]
				}

			}
, 			{
				"patchline" : 				{
					"source" : [ "obj-30", 0 ],
					"destination" : [ "obj-211", 0 ],
					"hidden" : 0,
					"midpoints" : [  ]
				}

			}
, 			{
				"patchline" : 				{
					"source" : [ "obj-28", 0 ],
					"destination" : [ "obj-10", 0 ],
					"hidden" : 0,
					"midpoints" : [  ]
				}

			}
, 			{
				"patchline" : 				{
					"source" : [ "obj-27", 0 ],
					"destination" : [ "obj-28", 0 ],
					"hidden" : 0,
					"midpoints" : [  ]
				}

			}
, 			{
				"patchline" : 				{
					"source" : [ "obj-22", 0 ],
					"destination" : [ "obj-27", 0 ],
					"hidden" : 0,
					"midpoints" : [  ]
				}

			}
, 			{
				"patchline" : 				{
					"source" : [ "obj-25", 0 ],
					"destination" : [ "obj-22", 0 ],
					"hidden" : 0,
					"midpoints" : [  ]
				}

			}
, 			{
				"patchline" : 				{
					"source" : [ "obj-212", 0 ],
					"destination" : [ "obj-25", 0 ],
					"hidden" : 0,
					"midpoints" : [  ]
				}

			}
, 			{
				"patchline" : 				{
					"source" : [ "obj-18", 0 ],
					"destination" : [ "obj-16", 0 ],
					"hidden" : 0,
					"midpoints" : [  ]
				}

			}
, 			{
				"patchline" : 				{
					"source" : [ "obj-16", 0 ],
					"destination" : [ "obj-212", 0 ],
					"hidden" : 0,
					"midpoints" : [  ]
				}

			}
, 			{
				"patchline" : 				{
					"source" : [ "obj-211", 0 ],
					"destination" : [ "obj-6", 0 ],
					"hidden" : 0,
					"midpoints" : [  ]
				}

			}
, 			{
				"patchline" : 				{
					"source" : [ "obj-9", 1 ],
					"destination" : [ "obj-20", 0 ],
					"hidden" : 0,
					"midpoints" : [  ]
				}

			}
, 			{
				"patchline" : 				{
					"source" : [ "obj-9", 1 ],
					"destination" : [ "obj-191", 0 ],
					"hidden" : 0,
					"midpoints" : [ 684.5, 98.0, 927.0, 98.0 ]
				}

			}
, 			{
				"patchline" : 				{
					"source" : [ "obj-9", 0 ],
					"destination" : [ "obj-17", 0 ],
					"hidden" : 0,
					"midpoints" : [  ]
				}

			}
, 			{
				"patchline" : 				{
					"source" : [ "obj-61", 0 ],
					"destination" : [ "obj-191", 1 ],
					"hidden" : 0,
					"midpoints" : [  ]
				}

			}
, 			{
				"patchline" : 				{
					"source" : [ "obj-3", 0 ],
					"destination" : [ "obj-154", 0 ],
					"hidden" : 0,
					"midpoints" : [  ]
				}

			}
, 			{
				"patchline" : 				{
					"source" : [ "obj-191", 0 ],
					"destination" : [ "obj-149", 0 ],
					"hidden" : 0,
					"midpoints" : [ 927.0, 128.0, 963.25, 128.0 ]
				}

			}
, 			{
				"patchline" : 				{
					"source" : [ "obj-17", 0 ],
					"destination" : [ "obj-13", 0 ],
					"hidden" : 0,
					"midpoints" : [  ]
				}

			}
, 			{
				"patchline" : 				{
					"source" : [ "obj-154", 1 ],
					"destination" : [ "obj-152", 0 ],
					"hidden" : 0,
					"midpoints" : [  ]
				}

			}
, 			{
				"patchline" : 				{
					"source" : [ "obj-152", 0 ],
					"destination" : [ "obj-191", 2 ],
					"hidden" : 0,
					"midpoints" : [  ]
				}

			}
, 			{
				"patchline" : 				{
					"source" : [ "obj-149", 0 ],
					"destination" : [ "obj-186", 0 ],
					"hidden" : 0,
					"midpoints" : [  ]
				}

			}
, 			{
				"patchline" : 				{
					"source" : [ "obj-130", 0 ],
					"destination" : [ "obj-9", 0 ],
					"hidden" : 0,
					"midpoints" : [  ]
				}

			}
, 			{
				"patchline" : 				{
					"source" : [ "obj-13", 0 ],
					"destination" : [ "obj-21", 0 ],
					"hidden" : 0,
					"midpoints" : [  ]
				}

			}
, 			{
				"patchline" : 				{
					"source" : [ "obj-2", 0 ],
					"destination" : [ "obj-4", 0 ],
					"hidden" : 0,
					"midpoints" : [  ]
				}

			}
, 			{
				"patchline" : 				{
					"source" : [ "obj-37", 0 ],
					"destination" : [ "obj-12", 0 ],
					"hidden" : 0,
					"midpoints" : [  ]
				}

			}
, 			{
				"patchline" : 				{
					"source" : [ "obj-12", 0 ],
					"destination" : [ "obj-8", 0 ],
					"hidden" : 0,
					"midpoints" : [  ]
				}

			}
, 			{
				"patchline" : 				{
					"source" : [ "obj-8", 0 ],
					"destination" : [ "obj-2", 0 ],
					"hidden" : 0,
					"midpoints" : [  ]
				}

			}
, 			{
				"patchline" : 				{
					"source" : [ "obj-4", 0 ],
					"destination" : [ "obj-28", 1 ],
					"hidden" : 0,
					"midpoints" : [  ]
				}

			}
, 			{
				"patchline" : 				{
					"source" : [ "obj-6", 0 ],
					"destination" : [ "obj-24", 1 ],
					"hidden" : 0,
					"midpoints" : [  ]
				}

			}
, 			{
				"patchline" : 				{
					"source" : [ "obj-6", 0 ],
					"destination" : [ "obj-24", 0 ],
					"hidden" : 0,
					"midpoints" : [  ]
				}

			}
, 			{
				"patchline" : 				{
					"source" : [ "obj-29", 0 ],
					"destination" : [ "obj-23", 0 ],
					"hidden" : 0,
					"midpoints" : [  ]
				}

			}
, 			{
				"patchline" : 				{
					"source" : [ "obj-23", 0 ],
					"destination" : [ "obj-15", 0 ],
					"hidden" : 0,
					"midpoints" : [  ]
				}

			}
, 			{
				"patchline" : 				{
					"source" : [ "obj-15", 0 ],
					"destination" : [ "obj-32", 1 ],
					"hidden" : 0,
					"midpoints" : [  ]
				}

			}
, 			{
				"patchline" : 				{
					"source" : [ "obj-14", 0 ],
					"destination" : [ "obj-32", 0 ],
					"hidden" : 0,
					"midpoints" : [  ]
				}

			}
, 			{
				"patchline" : 				{
					"source" : [ "obj-32", 0 ],
					"destination" : [ "obj-35", 0 ],
					"hidden" : 0,
					"midpoints" : [  ]
				}

			}
, 			{
				"patchline" : 				{
					"source" : [ "obj-32", 0 ],
					"destination" : [ "obj-36", 0 ],
					"hidden" : 0,
					"midpoints" : [  ]
				}

			}
, 			{
				"patchline" : 				{
					"source" : [ "obj-39", 0 ],
					"destination" : [ "obj-36", 1 ],
					"hidden" : 0,
					"midpoints" : [  ]
				}

			}
, 			{
				"patchline" : 				{
					"source" : [ "obj-41", 0 ],
					"destination" : [ "obj-36", 2 ],
					"hidden" : 0,
					"midpoints" : [  ]
				}

			}
, 			{
				"patchline" : 				{
					"source" : [ "obj-42", 0 ],
					"destination" : [ "obj-41", 0 ],
					"hidden" : 0,
					"midpoints" : [  ]
				}

			}
, 			{
				"patchline" : 				{
					"source" : [ "obj-36", 0 ],
					"destination" : [ "obj-11", 0 ],
					"hidden" : 0,
					"midpoints" : [  ]
				}

			}
, 			{
				"patchline" : 				{
					"source" : [ "obj-36", 0 ],
					"destination" : [ "obj-45", 0 ],
					"hidden" : 0,
					"midpoints" : [  ]
				}

			}
, 			{
				"patchline" : 				{
					"source" : [ "obj-4", 0 ],
					"destination" : [ "obj-47", 1 ],
					"hidden" : 0,
					"midpoints" : [  ]
				}

			}
, 			{
				"patchline" : 				{
					"source" : [ "obj-52", 0 ],
					"destination" : [ "obj-50", 0 ],
					"hidden" : 0,
					"midpoints" : [  ]
				}

			}
, 			{
				"patchline" : 				{
					"source" : [ "obj-48", 0 ],
					"destination" : [ "obj-52", 0 ],
					"hidden" : 0,
					"midpoints" : [  ]
				}

			}
, 			{
				"patchline" : 				{
					"source" : [ "obj-1", 0 ],
					"destination" : [ "obj-48", 0 ],
					"hidden" : 0,
					"midpoints" : [  ]
				}

			}
, 			{
				"patchline" : 				{
					"source" : [ "obj-52", 0 ],
					"destination" : [ "obj-36", 3 ],
					"hidden" : 0,
					"midpoints" : [  ]
				}

			}
 ],
		"parameters" : 		{
			"obj-154" : [ "Rate", "Rate", 0 ]
		}

	}

}
